<svg width="28" height="28" viewBox="0 0 28 28" fill="none" xmlns="http://www.w3.org/2000/svg">
<path fill-rule="evenodd" clip-rule="evenodd" d="M9.93361 3.1261C9.53256 3.1261 9.27456 3.573 9.49395 3.92698L12.2933 8.44339H18.3786C18.4028 8.44228 18.4271 8.44171 18.4516 8.44171C19.3138 8.44171 20.0128 9.14229 20.0128 10.0065C20.0128 10.8707 19.3138 11.5713 18.4516 11.5713C18.4264 11.5713 18.4014 11.5707 18.3765 11.5695H14.2309L17.3246 16.5608H18.4845C20.6886 16.5608 22.2385 15.718 23.26 14.5214C24.3101 13.2914 24.8739 11.5971 24.8739 9.84344C24.8739 8.08975 24.3101 6.39551 23.26 5.16552C22.2385 3.96886 20.6886 3.1261 18.4845 3.1261H9.93361ZM19.2464 19.6615C21.9817 19.4771 24.1444 18.3002 25.6376 16.5511C27.2384 14.6759 28 12.2299 28 9.84344C28 7.45695 27.2384 5.01098 25.6376 3.13582C24.0084 1.22734 21.582 0 18.4845 0H9.93361C7.06976 0 5.33337 3.14819 6.83685 5.57389L8.66133 8.51748C6.07458 8.8044 4.00196 9.90714 2.5266 11.518C0.822983 13.378 1.78814e-06 15.8219 0 18.2216C-1.78814e-06 20.6214 0.822976 23.0652 2.52659 24.9253C4.25331 26.8106 6.79815 27.9999 10.0278 27.9999H17.8631C20.727 27.9999 22.4634 24.8517 20.9599 22.426L19.2464 19.6615ZM10.1354 19.6869C10.1106 19.6881 10.0856 19.6887 10.0605 19.6887C9.19823 19.6887 8.49925 18.9881 8.49925 18.1239C8.49925 17.2597 9.19823 16.5591 10.0605 16.5591C10.085 16.5591 10.1094 16.5597 10.1336 16.5608H13.6467L10.553 11.5695H10.0278C7.61432 11.5695 5.92677 12.434 4.8319 13.6294C3.71392 14.85 3.1261 16.5138 3.1261 18.2216C3.1261 19.9295 3.71392 21.5932 4.8319 22.8139C5.92676 24.0093 7.61432 24.8738 10.0278 24.8738H17.8631C18.2642 24.8738 18.5222 24.4269 18.3028 24.0729L15.5843 19.6869H10.1354Z" fill="url(#paint0_linear)"/>
<defs>
<linearGradient id="paint0_linear" x1="-10.7566" y1="39.8066" x2="34.0899" y2="-6.06666" gradientUnits="userSpaceOnUse">
<stop stop-color="#2BF2FF"/>
<stop offset="1" stop-color="#2245FF"/>
</linearGradient>
</defs>
</svg>
